<svg width="444" height="512" viewBox="0 0 444 512" fill="none" xmlns="http://www.w3.org/2000/svg">
<path d="M444 128.25L222 0L0 128.25V383.75L222 512L444 383.75V128.25Z" fill="white"/>
<path d="M428 137.481L222 18.0316L16 137.481V374.458L222 494.032L428 374.525V255.916V137.481Z" fill="black"/>
<path d="M36 362.843L222 470L129 309.474L36 362.843Z" fill="#4AB716"/>
<path d="M36 362.843L222 470L129 309.474L36 362.843Z" fill="black" fill-opacity="0.25"/>
<path d="M408 362.843V148.948L315.045 309.396L408 362.843Z" fill="#4AB716"/>
<path d="M408 362.843V148.948L315.045 309.396L408 362.843Z" fill="white" fill-opacity="0.3"/>
<path d="M222 470L315.045 309.396L222 282.75V470Z" fill="#4AB716"/>
<path d="M222 470L315.045 309.396L222 282.75V470Z" fill="white" fill-opacity="0.3"/>
<path d="M408 148.948H222L245.188 242.563L408 148.948Z" fill="#4AB716"/>
<path d="M408 148.948H222L245.188 242.563L408 148.948Z" fill="white" fill-opacity="0.3"/>
<path d="M36 148.948L129 309.474L198.812 242.563L36 148.948Z" fill="#4AB716"/>
<path d="M36 148.948L129 309.474L198.812 242.563L36 148.948Z" fill="white" fill-opacity="0.3"/>
<path fill-rule="evenodd" clip-rule="evenodd" d="M222 148.948H36V362.843L129 309.474L222 470L408 362.843L315.045 309.396L408 148.948L245.188 242.563L315.045 309.396L222 470V282.75L129 309.474L36 148.948L198.812 242.563L222 148.948Z" fill="#4AB716"/>
<path d="M222 42L36 148.948H222V42Z" fill="#4AB716"/>
<path d="M222 42L36 148.948H222V42Z" fill="black" fill-opacity="0.25"/>
<path d="M408 148.948L222 42V148.948H408Z" fill="#4AB716"/>
<path d="M213.486 251L185.545 276.857L222 265.5L258.457 276.858L230.514 251L222 214L213.486 251Z" fill="white"/>
</svg>
