<svg width="1024" height="1024" viewBox="0 0 1024 1024" fill="none" xmlns="http://www.w3.org/2000/svg">
<g clip-path="url(#clip0_2255_2617)">
<g filter="url(#filter0_d_2255_2617)">
<path d="M845 320.375L512 128L179 320.375V703.625L512 896L845 703.625V320.375Z" fill="white"/>
<path d="M821 334.222L512 155.047L203 334.222V689.687L512 869.047L821 689.787V511.874V334.222Z" fill="black"/>
<path d="M233 672.265L512 833L372.5 592.211L233 672.265Z" fill="#4AB716"/>
<path d="M233 672.265L512 833L372.5 592.211L233 672.265Z" fill="black" fill-opacity="0.25"/>
<path d="M791 672.265V351.422L651.568 592.093L791 672.265Z" fill="#4AB716"/>
<path d="M791 672.265V351.422L651.568 592.093L791 672.265Z" fill="white" fill-opacity="0.3"/>
<path d="M512 833L651.568 592.093L512 552.125V833Z" fill="#4AB716"/>
<path d="M512 833L651.568 592.093L512 552.125V833Z" fill="white" fill-opacity="0.3"/>
<path d="M791 351.422H512L546.782 491.844L791 351.422Z" fill="#4AB716"/>
<path d="M791 351.422H512L546.782 491.844L791 351.422Z" fill="white" fill-opacity="0.3"/>
<path d="M233 351.422L372.5 592.211L477.218 491.844L233 351.422Z" fill="#4AB716"/>
<path d="M233 351.422L372.5 592.211L477.218 491.844L233 351.422Z" fill="white" fill-opacity="0.3"/>
<path fill-rule="evenodd" clip-rule="evenodd" d="M512 351.422H233V672.265L372.5 592.211L512 833L791 672.265L651.568 592.093L791 351.422L546.782 491.844L651.568 592.093L512 833V552.125L372.5 592.211L233 351.422L477.218 491.844L512 351.422Z" fill="#4AB716"/>
<path d="M512 191L233 351.422H512V191Z" fill="#4AB716"/>
<path d="M512 191L233 351.422H512V191Z" fill="black" fill-opacity="0.25"/>
<path d="M791 351.422L512 191V351.422H791Z" fill="#4AB716"/>
<path d="M499.229 504.5L457.318 543.285L512 526.25L566.686 543.287L524.771 504.5L512 449L499.229 504.5Z" fill="white"/>
</g>
</g>
<defs>
<filter id="filter0_d_2255_2617" x="-196" y="-68" width="1416" height="1160" filterUnits="userSpaceOnUse" color-interpolation-filters="sRGB">
<feFlood flood-opacity="0" result="BackgroundImageFix"/>
<feColorMatrix in="SourceAlpha" type="matrix" values="0 0 0 0 0 0 0 0 0 0 0 0 0 0 0 0 0 0 127 0" result="hardAlpha"/>
<feOffset/>
<feGaussianBlur stdDeviation="98"/>
<feComposite in2="hardAlpha" operator="out"/>
<feColorMatrix type="matrix" values="0 0 0 0 0.290196 0 0 0 0 0.717647 0 0 0 0 0.0862745 0 0 0 0.75 0"/>
<feBlend mode="normal" in2="BackgroundImageFix" result="effect1_dropShadow_2255_2617"/>
<feBlend mode="normal" in="SourceGraphic" in2="effect1_dropShadow_2255_2617" result="shape"/>
</filter>
<clipPath id="clip0_2255_2617">
<rect width="1024" height="1024" fill="white"/>
</clipPath>
</defs>
</svg>
