<svg width="1667" height="640" viewBox="0 0 1667 640" fill="none" xmlns="http://www.w3.org/2000/svg">
<rect width="1667" height="640" fill="black"/>
<path d="M540 192.25L318 64L96 192.25V447.75L318 576L540 447.75V192.25Z" fill="white"/>
<path d="M524 201.481L318 82.0316L112 201.481V438.458L318 558.032L524 438.525V319.916V201.481Z" fill="black"/>
<path d="M132 426.843L318 534L225 373.474L132 426.843Z" fill="#4AB716"/>
<path d="M132 426.843L318 534L225 373.474L132 426.843Z" fill="black" fill-opacity="0.25"/>
<path d="M504 426.843V212.948L411.045 373.396L504 426.843Z" fill="#4AB716"/>
<path d="M504 426.843V212.948L411.045 373.396L504 426.843Z" fill="white" fill-opacity="0.3"/>
<path d="M318 534L411.045 373.396L318 346.75V534Z" fill="#4AB716"/>
<path d="M318 534L411.045 373.396L318 346.75V534Z" fill="white" fill-opacity="0.3"/>
<path d="M504 212.948H318L341.188 306.563L504 212.948Z" fill="#4AB716"/>
<path d="M504 212.948H318L341.188 306.563L504 212.948Z" fill="white" fill-opacity="0.3"/>
<path d="M132 212.948L225 373.474L294.812 306.563L132 212.948Z" fill="#4AB716"/>
<path d="M132 212.948L225 373.474L294.812 306.563L132 212.948Z" fill="white" fill-opacity="0.3"/>
<path fill-rule="evenodd" clip-rule="evenodd" d="M318 212.948H132V426.843L225 373.474L318 534L504 426.843L411.045 373.396L504 212.948L341.188 306.563L411.045 373.396L318 534V346.75L225 373.474L132 212.948L294.812 306.563L318 212.948Z" fill="#4AB716"/>
<path d="M318 106L132 212.948H318V106Z" fill="#4AB716"/>
<path d="M318 106L132 212.948H318V106Z" fill="black" fill-opacity="0.25"/>
<path d="M504 212.948L318 106V212.948H504Z" fill="#4AB716"/>
<path d="M309.486 315L281.545 340.857L318 329.5L354.457 340.858L326.514 315L318 278L309.486 315Z" fill="white"/>
<path d="M651.04 285H615.76V147.8H724.54V175.24H651.04V207.58H708.86V235.02H651.04V285ZM799.02 285C790.265 286.307 781.903 286.96 773.932 286.96C766.092 286.96 759.493 284.281 754.136 278.924C748.779 273.567 746.1 266.445 746.1 257.56V147.8H780.4V252.66C780.4 254.62 781.053 256.253 782.36 257.56C783.667 258.867 785.3 259.52 787.26 259.52H799.02V285ZM862.689 203.66C857.463 203.66 854.849 206.273 854.849 211.5V222.28H888.169V211.5C888.169 206.273 885.556 203.66 880.329 203.66H862.689ZM918.549 283.04C893.331 285.653 870.464 286.96 849.949 286.96C841.064 286.96 833.943 284.281 828.585 278.924C823.228 273.567 820.549 266.445 820.549 257.56V210.52C820.549 200.72 823.293 193.076 828.781 187.588C834.4 181.969 842.109 179.16 851.909 179.16H891.109C900.909 179.16 908.553 181.969 914.041 187.588C919.66 193.076 922.469 200.72 922.469 210.52V246.78H854.849V254.62C854.849 256.58 855.503 258.213 856.809 259.52C858.116 260.827 859.749 261.48 861.709 261.48C874.645 261.48 893.592 260.5 918.549 258.54V283.04ZM1008.68 181.12H1046.9L1015.54 233.06L1047.88 285H1009.66L992.019 253.64L974.379 285H936.159L968.499 233.06L937.139 181.12H975.359L992.019 212.48L1008.68 181.12ZM1106.64 259.52C1113.57 259.52 1121.41 258.213 1130.16 255.6V243.84H1101.74C1099.78 243.84 1098.15 244.493 1096.84 245.8C1095.53 247.107 1094.88 248.74 1094.88 250.7V252.66C1094.88 254.62 1095.53 256.253 1096.84 257.56C1098.15 258.867 1099.78 259.52 1101.74 259.52H1106.64ZM1070.38 183.08C1094.29 180.467 1115.85 179.16 1135.06 179.16C1143.95 179.16 1151.07 181.839 1156.42 187.196C1161.78 192.553 1164.46 199.675 1164.46 208.56V285H1134.08L1132.12 275.2C1125.98 279.251 1119.64 282.256 1113.11 284.216C1106.71 286.045 1101.28 286.96 1096.84 286.96H1089.98C1081.1 286.96 1073.97 284.281 1068.62 278.924C1063.26 273.567 1060.58 266.445 1060.58 257.56V248.74C1060.58 239.855 1063.26 232.733 1068.62 227.376C1073.97 222.019 1081.1 219.34 1089.98 219.34H1130.16V211.5C1130.16 209.54 1129.51 207.907 1128.2 206.6C1126.89 205.293 1125.26 204.64 1123.3 204.64C1114.81 204.64 1105.4 205.032 1095.08 205.816C1084.88 206.6 1076.65 207.188 1070.38 207.58V183.08ZM1259.47 277.16C1246.79 279.773 1235.69 281.08 1226.15 281.08H1219.29C1210.4 281.08 1203.28 278.401 1197.92 273.044C1192.57 267.687 1189.89 260.565 1189.89 251.68V212.48C1189.89 202.68 1192.63 195.036 1198.12 189.548C1203.74 183.929 1211.45 181.12 1221.25 181.12H1293.77V290.88C1293.77 299.765 1291.09 306.887 1285.73 312.244C1280.37 317.601 1273.25 320.28 1264.37 320.28C1243.85 320.28 1220.99 318.973 1195.77 316.36V290.88C1220.72 292.84 1239.67 293.82 1252.61 293.82C1254.57 293.82 1256.2 293.167 1257.51 291.86C1258.81 290.553 1259.47 288.92 1259.47 286.96V277.16ZM1235.95 254.62C1244.18 254.62 1252.02 253.967 1259.47 252.66V207.58H1232.03C1226.8 207.58 1224.19 210.193 1224.19 215.42V247.76C1224.19 249.72 1224.84 251.353 1226.15 252.66C1227.45 253.967 1229.09 254.62 1231.05 254.62H1235.95ZM1429.03 255.6C1429.03 265.4 1426.22 273.109 1420.6 278.728C1415.11 284.216 1407.47 286.96 1397.67 286.96H1352.59C1342.79 286.96 1335.08 284.216 1329.46 278.728C1323.97 273.109 1321.23 265.4 1321.23 255.6V210.52C1321.23 200.72 1323.97 193.076 1329.46 187.588C1335.08 181.969 1342.79 179.16 1352.59 179.16H1397.67C1407.47 179.16 1415.11 181.969 1420.6 187.588C1426.22 193.076 1429.03 200.72 1429.03 210.52V255.6ZM1394.73 213.46C1394.73 208.233 1392.12 205.62 1386.89 205.62H1363.37C1358.14 205.62 1355.53 208.233 1355.53 213.46V252.66C1355.53 257.887 1358.14 260.5 1363.37 260.5H1386.89C1392.12 260.5 1394.73 257.887 1394.73 252.66V213.46ZM1514.27 207.58C1507.34 207.58 1499.5 208.887 1490.75 211.5V285H1456.45V181.12H1486.83L1488.79 190.92C1494.93 186.869 1501.2 183.929 1507.6 182.1C1514.14 180.14 1519.62 179.16 1524.07 179.16H1532.89C1541.77 179.16 1548.89 181.839 1554.25 187.196C1559.61 192.553 1562.29 199.675 1562.29 208.56V285H1527.99V214.44C1527.99 212.48 1527.33 210.847 1526.03 209.54C1524.72 208.233 1523.09 207.58 1521.13 207.58H1514.27ZM682.4 481H647.12V371.24H605.96V343.8H723.56V371.24H682.4V481ZM775.561 399.66C770.335 399.66 767.721 402.273 767.721 407.5V418.28H801.041V407.5C801.041 402.273 798.428 399.66 793.201 399.66H775.561ZM831.421 479.04C806.203 481.653 783.336 482.96 762.821 482.96C753.936 482.96 746.815 480.281 741.457 474.924C736.1 469.567 733.421 462.445 733.421 453.56V406.52C733.421 396.72 736.165 389.076 741.653 383.588C747.272 377.969 754.981 375.16 764.781 375.16H803.981C813.781 375.16 821.425 377.969 826.913 383.588C832.532 389.076 835.341 396.72 835.341 406.52V442.78H767.721V450.62C767.721 452.58 768.375 454.213 769.681 455.52C770.988 456.827 772.621 457.48 774.581 457.48C787.517 457.48 806.464 456.5 831.421 454.54V479.04ZM954.825 479.04C930.39 481.653 908.83 482.96 890.145 482.96C881.259 482.96 874.138 480.281 868.781 474.924C863.423 469.567 860.745 462.445 860.745 453.56V408.48C860.745 398.68 863.489 391.036 868.977 385.548C874.595 379.929 882.305 377.12 892.105 377.12H954.825V403.58H902.885C897.658 403.58 895.045 406.193 895.045 411.42V449.64C895.045 451.6 895.698 453.233 897.005 454.54C898.311 455.847 899.945 456.5 901.905 456.5C913.665 456.5 931.305 455.52 954.825 453.56V479.04ZM1014.57 379.08C1027.24 376.467 1038.35 375.16 1047.89 375.16H1056.71C1065.59 375.16 1072.71 377.839 1078.07 383.196C1083.43 388.553 1086.11 395.675 1086.11 404.56V481H1051.81V408.48C1051.81 406.52 1051.15 404.887 1049.85 403.58C1048.54 402.273 1046.91 401.62 1044.95 401.62H1038.09C1033.12 401.62 1028.55 401.881 1024.37 402.404C1020.32 402.927 1017.05 403.319 1014.57 403.58V481H980.266V343.8H1014.57V379.08Z" fill="white"/>
</svg>
